<?xml version="1.0" encoding="utf-8"?>
<svg version="1.1" x="0px" y="0px" style="enable-background:new 0 0 100 100;" width="480px" height="480px" viewBox="0.126 -0.501 418 418" xmlns="http://www.w3.org/2000/svg">
  <title>Barcode</title>
  <desc>The original artwork for this icon was created by Sunarto Hamizan for the Noun Project and was downloaded on 2023-06-14 from https://thenounproject.com/icon/barcode-5653940/.</desc>
  <path d="M 273.837 367.444 C 202.417 367.444 144.317 309.342 144.317 237.923 C 144.317 166.503 202.417 108.399 273.837 108.399 C 345.256 108.399 403.361 166.503 403.361 237.923 C 403.361 309.342 345.256 367.444 273.837 367.444 Z M 273.837 132.13 C 215.502 132.13 168.044 179.588 168.044 237.923 C 168.044 296.258 215.502 343.717 273.837 343.717 C 332.172 343.717 379.634 296.258 379.634 237.923 C 379.634 179.588 332.172 132.13 273.837 132.13 Z" style="fill: rgb(255, 110, 30);"/>
  <path d="M 403.261 390.979 C 400.226 390.979 397.19 389.817 394.874 387.501 L 342.247 334.873 C 337.61 330.242 337.61 322.731 342.247 318.094 C 346.874 313.462 354.39 313.462 359.021 318.094 L 411.649 370.726 C 416.285 375.358 416.285 382.87 411.649 387.501 C 409.338 389.817 406.297 390.979 403.261 390.979 Z" style="fill: rgb(255, 110, 30);"/>
  <path d="M 14.987 332.146 C 8.438 332.146 3.126 326.833 3.126 320.284 L 3.126 37.903 C 3.126 31.355 8.438 26.041 14.987 26.041 C 21.541 26.041 26.853 31.355 26.853 37.903 L 26.853 320.284 C 26.853 326.833 21.541 332.146 14.987 332.146 Z" style="fill: rgb(255, 110, 30);"/>
  <path d="M 62.055 332.146 C 55.502 332.146 50.189 326.833 50.189 320.284 L 50.189 37.903 C 50.189 31.355 55.502 26.041 62.055 26.041 C 68.604 26.041 73.916 31.355 73.916 37.903 L 73.916 320.284 C 73.916 326.833 68.604 332.146 62.055 332.146 Z" style="fill: rgb(255, 110, 30);"/>
  <path d="M 109.119 332.146 C 102.566 332.146 97.253 326.833 97.253 320.284 L 97.253 37.903 C 97.253 31.355 102.566 26.041 109.119 26.041 C 115.667 26.041 120.98 31.355 120.98 37.903 L 120.98 320.284 C 120.98 326.833 115.667 332.146 109.119 332.146 Z" style="fill: rgb(255, 110, 30);"/>
  <path d="M 156.178 249.784 C 149.629 249.784 144.317 244.472 144.317 237.923 L 144.317 37.903 C 144.317 31.355 149.629 26.041 156.178 26.041 C 162.731 26.041 168.044 31.355 168.044 37.903 L 168.044 237.923 C 168.044 244.472 162.731 249.784 156.178 249.784 Z" style="fill: rgb(255, 110, 30);"/>
  <path d="M 203.241 155.662 C 196.693 155.662 191.38 150.349 191.38 143.796 L 191.38 37.903 C 191.38 31.355 196.693 26.041 203.241 26.041 C 209.795 26.041 215.107 31.355 215.107 37.903 L 215.107 143.796 C 215.107 150.349 209.795 155.662 203.241 155.662 Z" style="fill: rgb(255, 110, 30);"/>
  <path d="M 250.306 132.13 C 243.756 132.13 238.444 126.818 238.444 120.264 L 238.444 37.903 C 238.444 31.355 243.756 26.041 250.306 26.041 C 256.858 26.041 262.171 31.355 262.171 37.903 L 262.171 120.264 C 262.171 126.818 256.858 132.13 250.306 132.13 Z" style="fill: rgb(255, 110, 30);"/>
  <path d="M 297.352 134.476 C 290.798 134.476 285.486 129.163 285.486 122.615 L 285.486 37.881 C 285.486 31.332 290.798 26.02 297.352 26.02 C 303.904 26.02 309.217 31.332 309.217 37.881 L 309.217 122.615 C 309.217 129.163 303.904 134.476 297.352 134.476 Z" style="fill: rgb(255, 110, 30);"/>
  <path d="M 344.432 155.662 C 337.884 155.662 332.571 150.349 332.571 143.796 L 332.571 37.903 C 332.571 31.355 337.884 26.041 344.432 26.041 C 350.986 26.041 356.298 31.355 356.298 37.903 L 356.298 143.796 C 356.298 150.349 350.986 155.662 344.432 155.662 Z" style="fill: rgb(255, 110, 30);"/>
  <path d="M 391.495 243.904 C 384.947 243.904 379.634 238.591 379.634 232.042 L 379.634 37.903 C 379.634 31.355 384.947 26.041 391.495 26.041 C 398.049 26.041 403.361 31.355 403.361 37.903 L 403.361 232.042 C 403.361 238.591 398.049 243.904 391.495 243.904 Z" style="fill: rgb(255, 110, 30);"/>
</svg>